<svg width="300" height="300" viewBox="0 0 300 300" fill="none" xmlns="http://www.w3.org/2000/svg">
<path d="M240 0H60C26.8629 0 0 26.8629 0 60V240C0 273.137 26.8629 300 60 300H240C273.137 300 300 273.137 300 240V60C300 26.8629 273.137 0 240 0Z" fill="#09ABEC"/>
<path d="M102.102 188.801V198H56.9258V188.801H102.102ZM59.2109 112.688V198H47.9023V112.688H59.2109ZM96.125 149.367V158.566H56.9258V149.367H96.125ZM101.516 112.688V121.945H56.9258V112.688H101.516Z" fill="white"/>
<path d="M167.609 170.871H178.859C178.273 176.262 176.73 181.086 174.23 185.344C171.73 189.602 168.195 192.98 163.625 195.48C159.055 197.941 153.352 199.172 146.516 199.172C141.516 199.172 136.965 198.234 132.863 196.359C128.801 194.484 125.305 191.828 122.375 188.391C119.445 184.914 117.18 180.754 115.578 175.91C114.016 171.027 113.234 165.598 113.234 159.621V151.125C113.234 145.148 114.016 139.738 115.578 134.895C117.18 130.012 119.465 125.832 122.434 122.355C125.441 118.879 129.055 116.203 133.273 114.328C137.492 112.453 142.238 111.516 147.512 111.516C153.957 111.516 159.406 112.727 163.859 115.148C168.312 117.57 171.77 120.93 174.23 125.227C176.73 129.484 178.273 134.426 178.859 140.051H167.609C167.062 136.066 166.047 132.648 164.562 129.797C163.078 126.906 160.969 124.68 158.234 123.117C155.5 121.555 151.926 120.773 147.512 120.773C143.723 120.773 140.383 121.496 137.492 122.941C134.641 124.387 132.238 126.438 130.285 129.094C128.371 131.75 126.926 134.934 125.949 138.645C124.973 142.355 124.484 146.477 124.484 151.008V159.621C124.484 163.801 124.914 167.727 125.773 171.398C126.672 175.07 128.02 178.293 129.816 181.066C131.613 183.84 133.898 186.027 136.672 187.629C139.445 189.191 142.727 189.973 146.516 189.973C151.32 189.973 155.148 189.211 158 187.688C160.852 186.164 163 183.977 164.445 181.125C165.93 178.273 166.984 174.855 167.609 170.871Z" fill="white"/>
<path d="M245.773 170.871H257.023C256.438 176.262 254.895 181.086 252.395 185.344C249.895 189.602 246.359 192.98 241.789 195.48C237.219 197.941 231.516 199.172 224.68 199.172C219.68 199.172 215.129 198.234 211.027 196.359C206.965 194.484 203.469 191.828 200.539 188.391C197.609 184.914 195.344 180.754 193.742 175.91C192.18 171.027 191.398 165.598 191.398 159.621V151.125C191.398 145.148 192.18 139.738 193.742 134.895C195.344 130.012 197.629 125.832 200.598 122.355C203.605 118.879 207.219 116.203 211.438 114.328C215.656 112.453 220.402 111.516 225.676 111.516C232.121 111.516 237.57 112.727 242.023 115.148C246.477 117.57 249.934 120.93 252.395 125.227C254.895 129.484 256.438 134.426 257.023 140.051H245.773C245.227 136.066 244.211 132.648 242.727 129.797C241.242 126.906 239.133 124.68 236.398 123.117C233.664 121.555 230.09 120.773 225.676 120.773C221.887 120.773 218.547 121.496 215.656 122.941C212.805 124.387 210.402 126.438 208.449 129.094C206.535 131.75 205.09 134.934 204.113 138.645C203.137 142.355 202.648 146.477 202.648 151.008V159.621C202.648 163.801 203.078 167.727 203.938 171.398C204.836 175.07 206.184 178.293 207.98 181.066C209.777 183.84 212.062 186.027 214.836 187.629C217.609 189.191 220.891 189.973 224.68 189.973C229.484 189.973 233.312 189.211 236.164 187.688C239.016 186.164 241.164 183.977 242.609 181.125C244.094 178.273 245.148 174.855 245.773 170.871Z" fill="white"/>
<path fill-rule="evenodd" clip-rule="evenodd" d="M147.512 113.887C142.523 113.887 138.112 114.773 134.237 116.495C130.338 118.228 127.01 120.692 124.232 123.901C121.491 127.113 119.35 131.008 117.833 135.628C116.36 140.198 115.606 145.356 115.606 151.125V159.621C115.606 165.387 116.359 170.565 117.834 175.176C119.351 179.761 121.476 183.641 124.184 186.857C126.891 190.032 130.109 192.475 133.853 194.204C137.612 195.922 141.82 196.8 146.516 196.8C153.076 196.8 158.362 195.619 162.494 193.396C166.706 191.09 169.916 188.008 172.185 184.143C174.093 180.894 175.412 177.268 176.127 173.243H169.594C168.919 176.595 167.915 179.593 166.555 182.208C164.887 185.494 162.39 188.031 159.118 189.779C155.795 191.554 151.535 192.344 146.516 192.344C142.396 192.344 138.699 191.493 135.508 189.695L135.497 189.689L135.486 189.683C132.377 187.887 129.82 185.434 127.826 182.356C125.866 179.33 124.422 175.855 123.47 171.962L123.467 171.95L123.464 171.939C122.559 168.072 122.113 163.963 122.113 159.621V151.008C122.113 146.308 122.619 141.98 123.656 138.041C124.694 134.096 126.25 130.636 128.361 127.707L128.368 127.698L128.374 127.689C130.54 124.743 133.227 122.444 136.42 120.826L136.432 120.82C139.704 119.184 143.418 118.402 147.512 118.402C152.181 118.402 156.203 119.225 159.411 121.058C162.556 122.855 164.982 125.424 166.669 128.707C168.032 131.328 169.01 134.328 169.63 137.679H176.146C175.434 133.437 174.105 129.696 172.185 126.427L172.179 126.416L172.172 126.405C169.935 122.499 166.803 119.449 162.726 117.232C158.703 115.044 153.666 113.887 147.512 113.887ZM132.31 112.161C136.872 110.133 141.953 109.144 147.512 109.144C154.248 109.144 160.11 110.409 164.993 113.065C169.818 115.689 173.597 119.354 176.282 124.036C178.973 128.623 180.603 133.896 181.218 139.805L181.491 142.422H165.541L165.26 140.373C164.741 136.594 163.79 133.45 162.459 130.892L162.453 130.88C161.171 128.385 159.38 126.503 157.058 125.176C154.797 123.885 151.67 123.145 147.512 123.145C144.03 123.145 141.067 123.807 138.559 125.06C136.055 126.33 133.941 128.129 132.203 130.489C130.489 132.871 129.157 135.775 128.243 139.248C127.326 142.73 126.856 146.645 126.856 151.008V159.621C126.856 163.634 127.268 167.373 128.08 170.846C128.924 174.292 130.175 177.258 131.807 179.777C133.404 182.242 135.414 184.161 137.847 185.568C140.201 186.892 143.062 187.601 146.516 187.601C151.105 187.601 154.502 186.867 156.882 185.595C159.31 184.299 161.107 182.465 162.33 180.053L162.336 180.041L162.342 180.03C163.681 177.456 164.671 174.296 165.266 170.503L165.581 168.499H181.503L181.217 171.127C180.599 176.818 178.962 181.97 176.276 186.544C173.546 191.193 169.688 194.867 164.763 197.561L164.756 197.565L164.749 197.569C159.741 200.265 153.624 201.543 146.516 201.543C141.213 201.543 136.32 200.547 131.877 198.516L131.869 198.513C127.492 196.492 123.72 193.625 120.57 189.929L120.561 189.919C117.415 186.185 115.011 181.75 113.326 176.655L113.323 176.644L113.319 176.633C111.671 171.481 110.863 165.803 110.863 159.621V151.125C110.863 144.943 111.671 139.282 113.321 134.166L113.325 134.155C115.011 129.015 117.437 124.554 120.63 120.815L120.635 120.809L120.64 120.804C123.877 117.062 127.774 114.177 132.31 112.161ZM225.676 113.887C220.687 113.887 216.276 114.773 212.401 116.495C208.501 118.228 205.173 120.693 202.395 123.902C199.654 127.114 197.513 131.009 195.997 135.63C194.524 140.199 193.77 145.357 193.77 151.125V159.621C193.77 165.387 194.523 170.564 195.997 175.175C197.514 179.76 199.64 183.641 202.348 186.857C205.056 190.032 208.273 192.475 212.018 194.204C215.777 195.922 219.985 196.8 224.68 196.8C231.24 196.8 236.526 195.619 240.658 193.396C244.87 191.09 248.08 188.008 250.349 184.143C252.257 180.894 253.577 177.268 254.291 173.243H247.759C247.084 176.595 246.079 179.593 244.719 182.208C243.051 185.494 240.554 188.031 237.282 189.779C233.959 191.554 229.699 192.344 224.68 192.344C220.561 192.344 216.863 191.493 213.672 189.695L213.661 189.689L213.65 189.683C210.541 187.887 207.984 185.434 205.99 182.356C204.03 179.33 202.586 175.855 201.634 171.962L201.631 171.95L201.628 171.939C200.723 168.072 200.277 163.963 200.277 159.621V151.008C200.277 146.308 200.783 141.98 201.82 138.041C202.858 134.096 204.414 130.636 206.525 127.707L206.532 127.698L206.538 127.689C208.704 124.743 211.391 122.444 214.584 120.826L214.596 120.82C217.868 119.184 221.582 118.402 225.676 118.402C230.345 118.402 234.367 119.225 237.575 121.058C240.72 122.855 243.146 125.424 244.833 128.707C246.196 131.328 247.174 134.328 247.794 137.679H254.31C253.598 133.437 252.269 129.696 250.349 126.427L250.343 126.416L250.336 126.405C248.099 122.499 244.967 119.449 240.89 117.232C236.867 115.044 231.83 113.887 225.676 113.887ZM210.474 112.161C215.036 110.133 220.118 109.144 225.676 109.144C232.412 109.144 238.274 110.409 243.157 113.065C247.982 115.689 251.761 119.354 254.446 124.036C257.137 128.623 258.767 133.896 259.382 139.805L259.655 142.422H243.705L243.424 140.373C242.905 136.594 241.954 133.45 240.623 130.892L240.617 130.88C239.335 128.385 237.544 126.503 235.222 125.176C232.961 123.885 229.834 123.145 225.676 123.145C222.195 123.145 219.231 123.807 216.723 125.059C214.219 126.33 212.104 128.129 210.367 130.49C208.653 132.871 207.321 135.776 206.407 139.248C205.491 142.73 205.02 146.645 205.02 151.008V159.621C205.02 163.634 205.432 167.373 206.244 170.846C207.088 174.292 208.339 177.258 209.971 179.777C211.568 182.242 213.578 184.161 216.011 185.569C218.365 186.892 221.226 187.601 224.68 187.601C229.27 187.601 232.666 186.867 235.046 185.595C237.474 184.299 239.271 182.465 240.494 180.053L240.5 180.041L240.506 180.03C241.846 177.456 242.836 174.296 243.43 170.503L243.745 168.499H259.667L259.381 171.127C258.763 176.818 257.126 181.97 254.44 186.544C251.71 191.193 247.852 194.867 242.927 197.561L242.92 197.565L242.913 197.569C237.905 200.265 231.788 201.543 224.68 201.543C219.377 201.543 214.485 200.547 210.041 198.516L210.033 198.513C205.656 196.492 201.884 193.625 198.734 189.929L198.725 189.919C195.579 186.185 193.175 181.75 191.49 176.655L191.487 176.644L191.483 176.633C189.835 171.481 189.027 165.803 189.027 159.621V151.125C189.027 144.943 189.835 139.282 191.485 134.166L191.489 134.155C193.175 129.015 195.601 124.554 198.794 120.815L198.799 120.809L198.804 120.804C202.041 117.062 205.938 114.177 210.474 112.161ZM45.5306 110.316H103.887V124.317H61.5826V146.995H98.4967V160.938H61.5826V186.429H104.473V200.372H45.5306V110.316ZM56.8392 186.429H54.5541V195.628H50.2741V115.059H54.5541V124.317H56.8392V146.995H54.5541V160.938H56.8392V186.429ZM61.5826 119.573H99.1439V115.059H61.5826V119.573ZM61.5826 195.628H99.7299V191.172H61.5826V195.628ZM61.5826 156.195H93.7533V151.739H61.5826V156.195Z" fill="white"/>
</svg>
